<svg width="22" height="19" viewBox="0 0 22 19" fill="none" xmlns="http://www.w3.org/2000/svg">
<path d="M21.0833 1.75922C21.0833 1.75922 19.2335 2.85188 18.205 3.16172C17.6529 2.52694 16.9192 2.07702 16.1031 1.87282C15.287 1.66861 14.4279 1.71998 13.6419 2.01997C12.8559 2.31995 12.1811 2.85409 11.7086 3.55012C11.2361 4.24616 10.9887 5.07053 11 5.91172V6.82838C9.38908 6.87016 7.79284 6.51288 6.35343 5.78838C4.91402 5.06387 3.67613 3.99463 2.75 2.67588C2.75 2.67588 -0.916666 10.9259 7.33333 14.5926C5.44548 15.874 3.19656 16.5166 0.916668 16.4259C9.16667 21.0092 19.25 16.4259 19.25 5.88422C19.25 5.62938 19.2243 5.37455 19.1767 5.12338C20.1117 4.20122 21.0833 1.75922 21.0833 1.75922Z" stroke="white" stroke-width="1.6" stroke-linecap="round" stroke-linejoin="round"/>
</svg>
